<svg xmlns="http://www.w3.org/2000/svg" xmlns:xlink="http://www.w3.org/1999/xlink" version="1.1" viewBox="50 91 441.3 112">
    <title>Waiting_in_line_graphic 2</title>
    <defs>
        <filter color-interpolation-filters="auto" id="filter-1">
            <feColorMatrix in="SourceGraphic" type="matrix" values="0 0 0 0 0.474510 0 0 0 0 0.474510 0 0 0 0 0.486275 0 0 0 1.000000 0"/>
        </filter>
    </defs>
    <g id="Waiting_in_line_graphic-2" stroke="none" stroke-width="1" fill="none" fill-rule="evenodd">
        <ellipse id="Oval" fill="#D8D8D8" cx="270" cy="199" rx="19" ry="4"/>
        <ellipse id="Oval-Copy" fill="#D8D8D8" cx="320" cy="199" rx="19" ry="4"/>
        <ellipse id="Oval-Copy-2" fill="#D8D8D8" cx="371" cy="199" rx="19" ry="4"/>
        <ellipse id="Oval-Copy-3" fill="#D8D8D8" cx="420" cy="199" rx="19" ry="4"/>
        <ellipse id="Oval-Copy-4" fill="#D8D8D8" cx="470" cy="199" rx="19" ry="4"/>
        <g id="Man-4" transform="translate(308.000000, 91.000000)">
            <g fill="#3A3B3F">
                <polygon id="Fill-1" points="1 11 1 11 1.275 13.2 1.825 15.4 2.925 17.05 4.3 18.7 5.95 20.075 7.875 21.175 9.8 21.725 12 22 12 22 14.2 21.725 16.4 21.175 18.05 20.075 19.7 18.7 21.075 17.05 22.175 15.4 22.725 13.2 23 11 23 11 22.725 8.8 22.175 6.875 21.075 4.95 19.7 3.3 18.05 1.925 16.4 0.825 14.2 0.275 12 0 12 0 9.8 0.275 7.875 0.825 5.95 1.925 4.3 3.3 2.925 4.95 1.825 6.875 1.275 8.8"/>
                <path d="M9,24 L12,24 C18.627417,24 24,29.372583 24,36 L24,64 C24,67.8659932 20.8659932,71 17,71 L7,71 C3.13400675,71 4.73447626e-16,67.8659932 0,64 L0,33 C-6.08718376e-16,28.0294373 4.02943725,24 9,24 Z" id="Rectangle"/>
                <path d="M11,61 L13,61 C16.8659932,61 20,64.1340068 20,68 L20,107 C20,107.552285 19.5522847,108 19,108 L5,108 C4.44771525,108 4,107.552285 4,107 L4,68 C4,64.1340068 7.13400675,61 11,61 Z" id="Rectangle-Copy" transform="translate(12.000000, 84.500000) rotate(-180.000000) translate(-12.000000, -84.500000) "/>
            </g>
            <g filter="url(#filter-1)" id="Group">
                <g transform="translate(5.000000, 58.000000)">
                    <rect id="Rectangle" fill="#413F43" x="0" y="4" width="26" height="18"/>
                    <rect id="Rectangle" stroke="#413F43" stroke-width="2" x="5" y="0" width="15" height="6"/>
                </g>
            </g>
        </g>
        <g id="Group-3-Copy-3" transform="translate(321.929759, 135.116629) rotate(12.000000) translate(-321.929759, -135.116629) translate(310.492185, 116.409749)" fill="#3A3B3F">
            <rect id="Rectangle-Copy-5" transform="translate(11.437574, 24.941406) rotate(-39.000000) translate(-11.437574, -24.941406) " x="6.4375745" y="12.9414062" width="10" height="24" rx="2"/>
            <rect id="Rectangle" x="0.736402625" y="-4.54747351e-13" width="10" height="24" rx="2"/>
        </g>
        <g id="woman-5" transform="translate(242.645406, 91.000000)">
            <g id="Group-3-Copy" transform="translate(6.704216, 0.000000)" fill="#3A3B3F">
                <polygon id="Fill-1" points="9.6503778 11 9.6503778 11 9.9253778 13.2 10.4753778 15.4 11.5753778 17.05 12.9503778 18.7 14.6003778 20.075 16.5253778 21.175 18.4503778 21.725 20.6503778 22 20.6503778 22 22.8503778 21.725 25.0503778 21.175 26.7003778 20.075 28.3503778 18.7 29.7253778 17.05 30.8253778 15.4 31.3753778 13.2 31.6503778 11 31.6503778 11 31.3753778 8.8 30.8253778 6.875 29.7253778 4.95 28.3503778 3.3 26.7003778 1.925 25.0503778 0.825 22.8503778 0.275 20.6503778 0 20.6503778 0 18.4503778 0.275 16.5253778 0.825 14.6003778 1.925 12.9503778 3.3 11.5753778 4.95 10.4753778 6.875 9.9253778 8.8"/>
                <path d="M16.6503778,24 L19.6503778,24 C26.2777948,24 31.6503778,29.372583 31.6503778,36 L31.6503778,64 C31.6503778,67.8659932 28.5163711,71 24.6503778,71 L14.6503778,71 C10.7843846,71 7.6503778,67.8659932 7.6503778,64 L7.6503778,33 C7.6503778,28.0294373 11.6798151,24 16.6503778,24 Z" id="Rectangle"/>
                <path d="M24.4683278,42.1394204 C26.5260144,43.1244831 28.1850328,44.7835015 29.1700955,46.8411882 L39.9086427,69.27282 C40.8625379,71.265401 40.0205166,73.6539919 38.0279356,74.6078871 C37.4887423,74.8660115 36.8985496,75 36.3007556,75 L28.65,74.9998205 L28.6503778,101 C28.6503778,104.865993 25.5163711,108 21.6503778,108 L19.6503778,108 C15.7843846,108 12.6503778,104.865993 12.6503778,101 L12.65,74.9998205 L4,75 C1.790861,75 -2.58904009e-13,73.209139 -2.59348099e-13,71 C-2.59348099e-13,70.4022061 0.133988471,69.8120133 0.392112907,69.27282 L11.1306601,46.8411882 C13.515398,41.8597356 19.4868752,39.7546825 24.4683278,42.1394204 Z" id="Rectangle-Copy-2"/>
            </g>
            <g id="Group-2-Copy" transform="translate(20.617803, 37.072497) rotate(14.000000) translate(-20.617803, -37.072497) translate(3.117803, 22.036125)">
                <rect id="Rectangle" fill="#D0343A" x="-7.27595761e-12" y="12.0727434" width="35" height="18"/>
                <ellipse id="Oval" stroke="#D0343A" cx="17.4689931" cy="12.5" rx="10" ry="12.5"/>
            </g>
            <rect id="Rectangle" fill="#FFFFFF" x="13.3545941" y="75" width="28" height="2"/>
        </g>
        <g id="Lady-3" transform="translate(347.650378, 91.000000)">
            <polygon id="Fill-1" fill="#3A3B3F" points="12 11 12 11 12.275 13.2 12.825 15.4 13.925 17.05 15.3 18.7 16.95 20.075 18.875 21.175 20.8 21.725 23 22 23 22 25.2 21.725 27.4 21.175 29.05 20.075 30.7 18.7 32.075 17.05 33.175 15.4 33.725 13.2 34 11 34 11 33.725 8.8 33.175 6.875 32.075 4.95 30.7 3.3 29.05 1.925 27.4 0.825 25.2 0.275 23 0 23 0 20.8 0.275 18.875 0.825 16.95 1.925 15.3 3.3 13.925 4.95 12.825 6.875 12.275 8.8"/>
            <path d="M20,24 L23,24 C29.627417,24 35,29.372583 35,36 L35,64 C35,67.8659932 31.8659932,71 28,71 L18,71 C14.1340068,71 11,67.8659932 11,64 L11,33 C11,28.0294373 15.0294373,24 20,24 Z" id="Rectangle" fill="#3A3B3F"/>
            <path d="M24,108 L22,108 C18.1340068,108 15,104.865993 15,101 L15,62 C15,61.4477153 15.4477153,61 16,61 L30,61 C30.5522847,61 31,61.4477153 31,62 L31,101 C31,104.865993 27.8659932,108 24,108 Z" id="Rectangle-Copy-2" fill="#3A3B3F"/>
            <path d="M31.5197177,46.8411882 L42.2582649,69.27282 C43.2121601,71.265401 42.3701388,73.6539919 40.3775578,74.6078871 C39.8383645,74.8660115 39.2481718,75 38.6503778,75 L6.3496222,75 C4.1404832,75 2.3496222,73.209139 2.3496222,71 C2.3496222,70.4022061 2.48361067,69.8120133 2.7417351,69.27282 L13.4802823,46.8411882 C15.8650202,41.8597356 21.8364974,39.7546825 26.81795,42.1394204 C28.8756366,43.1244831 30.534655,44.7835015 31.5197177,46.8411882 Z" id="Triangle" fill="#3A3B3F"/>
            <rect id="Rectangle-Copy-3" fill="#FFFFFF" x="10.3496222" y="75" width="28" height="2"/>
        </g>
        <g id="Man-2" transform="translate(409.000000, 91.000000)">
            <polygon id="Fill-1" fill="#3A3B3F" points="1 11 1 11 1.275 13.2 1.825 15.4 2.925 17.05 4.3 18.7 5.95 20.075 7.875 21.175 9.8 21.725 12 22 12 22 14.2 21.725 16.4 21.175 18.05 20.075 19.7 18.7 21.075 17.05 22.175 15.4 22.725 13.2 23 11 23 11 22.725 8.8 22.175 6.875 21.075 4.95 19.7 3.3 18.05 1.925 16.4 0.825 14.2 0.275 12 0 12 0 9.8 0.275 7.875 0.825 5.95 1.925 4.3 3.3 2.925 4.95 1.825 6.875 1.275 8.8"/>
            <path d="M9,24 L12,24 C18.627417,24 24,29.372583 24,36 L24,64 C24,67.8659932 20.8659932,71 17,71 L7,71 C3.13400675,71 4.73447626e-16,67.8659932 0,64 L0,33 C-6.08718376e-16,28.0294373 4.02943725,24 9,24 Z" id="Rectangle" fill="#3A3B3F"/>
            <path d="M11,61 L13,61 C16.8659932,61 20,64.1340068 20,68 L20,107 C20,107.552285 19.5522847,108 19,108 L5,108 C4.44771525,108 4,107.552285 4,107 L4,68 C4,64.1340068 7.13400675,61 11,61 Z" id="Rectangle-Copy" fill="#3A3B3F" transform="translate(12.000000, 84.500000) rotate(-180.000000) translate(-12.000000, -84.500000) "/>
            <g id="Group-4" transform="translate(4.000000, 61.000000)">
                <rect id="Rectangle" fill="#0092D1" x="0" y="4" width="26" height="18"/>
                <rect id="Rectangle" stroke="#0092D1" stroke-width="2" x="5" y="0" width="16" height="8"/>
            </g>
        </g>
        <g id="Group-3-Copy-3" transform="translate(421.077015, 137.676095) rotate(12.000000) translate(-421.077015, -137.676095) translate(409.639441, 118.969215)" fill="#3A3B3F">
            <rect id="Rectangle-Copy-5" transform="translate(11.437574, 24.941406) rotate(-39.000000) translate(-11.437574, -24.941406) " x="6.4375745" y="12.9414062" width="10" height="24" rx="2"/>
            <rect id="Rectangle" x="0.736402625" y="-4.54747351e-13" width="10" height="24" rx="2"/>
        </g>
        <ellipse id="Oval-Copy-8" fill="#D8D8D8" cx="71" cy="199" rx="19" ry="4"/>
        <ellipse id="Oval-Copy-7" fill="#D8D8D8" cx="121" cy="199" rx="19" ry="4"/>
        <ellipse id="Oval-Copy-6" fill="#D8D8D8" cx="172" cy="199" rx="19" ry="4"/>
        <ellipse id="Oval-Copy-5" fill="#D8D8D8" cx="221" cy="199" rx="19" ry="4"/>
        <g id="man-8" transform="translate(109.000000, 91.000000)" fill="#3A3B3F">
            <polygon id="Fill-1" points="1 11 1 11 1.275 13.2 1.825 15.4 2.925 17.05 4.3 18.7 5.95 20.075 7.875 21.175 9.8 21.725 12 22 12 22 14.2 21.725 16.4 21.175 18.05 20.075 19.7 18.7 21.075 17.05 22.175 15.4 22.725 13.2 23 11 23 11 22.725 8.8 22.175 6.875 21.075 4.95 19.7 3.3 18.05 1.925 16.4 0.825 14.2 0.275 12 0 12 0 9.8 0.275 7.875 0.825 5.95 1.925 4.3 3.3 2.925 4.95 1.825 6.875 1.275 8.8"/>
            <path d="M9,24 L12,24 C18.627417,24 24,29.372583 24,36 L24,64 C24,67.8659932 20.8659932,71 17,71 L7,71 C3.13400675,71 4.73447626e-16,67.8659932 0,64 L0,33 C-6.08718376e-16,28.0294373 4.02943725,24 9,24 Z" id="Rectangle"/>
            <path d="M11,61 L13,61 C16.8659932,61 20,64.1340068 20,68 L20,107 C20,107.552285 19.5522847,108 19,108 L5,108 C4.44771525,108 4,107.552285 4,107 L4,68 C4,64.1340068 7.13400675,61 11,61 Z" id="Rectangle-Copy" transform="translate(12.000000, 84.500000) rotate(-180.000000) translate(-12.000000, -84.500000) "/>
        </g>
        <g id="woman-9" transform="translate(50.000000, 91.000000)">
            <g id="Group-3-Copy-7" transform="translate(0.349622, 0.000000)" fill="#3A3B3F">
                <polygon id="Fill-1" points="9.6503778 11 9.6503778 11 9.9253778 13.2 10.4753778 15.4 11.5753778 17.05 12.9503778 18.7 14.6003778 20.075 16.5253778 21.175 18.4503778 21.725 20.6503778 22 20.6503778 22 22.8503778 21.725 25.0503778 21.175 26.7003778 20.075 28.3503778 18.7 29.7253778 17.05 30.8253778 15.4 31.3753778 13.2 31.6503778 11 31.6503778 11 31.3753778 8.8 30.8253778 6.875 29.7253778 4.95 28.3503778 3.3 26.7003778 1.925 25.0503778 0.825 22.8503778 0.275 20.6503778 0 20.6503778 0 18.4503778 0.275 16.5253778 0.825 14.6003778 1.925 12.9503778 3.3 11.5753778 4.95 10.4753778 6.875 9.9253778 8.8"/>
                <path d="M15.6503778,24 L18.6503778,24 C25.2777948,24 30.6503778,29.372583 30.6503778,36 L30.6503778,64 C30.6503778,67.8659932 27.5163711,71 23.6503778,71 L13.6503778,71 C9.78438456,71 6.6503778,67.8659932 6.6503778,64 L6.6503778,33 C6.6503778,28.0294373 10.6798151,24 15.6503778,24 Z" id="Rectangle"/>
                <path d="M24.4683278,42.1394204 C26.5260144,43.1244831 28.1850328,44.7835015 29.1700955,46.8411882 L39.9086427,69.27282 C40.8625379,71.265401 40.0205166,73.6539919 38.0279356,74.6078871 C37.4887423,74.8660115 36.8985496,75 36.3007556,75 L28.65,74.9998205 L28.6503778,101 C28.6503778,104.865993 25.5163711,108 21.6503778,108 L19.6503778,108 C15.7843846,108 12.6503778,104.865993 12.6503778,101 L12.65,74.9998205 L4,75 C1.790861,75 -2.58904009e-13,73.209139 -2.59348099e-13,71 C-2.59348099e-13,70.4022061 0.133988471,69.8120133 0.392112907,69.27282 L11.1306601,46.8411882 C13.515398,41.8597356 19.4868752,39.7546825 24.4683278,42.1394204 Z" id="Rectangle-Copy-2"/>
            </g>
            <g id="Group-2-Copy-2" transform="translate(0.000000, 24.000000)">
                <polygon id="Path-7" fill="#0092D1" points="0 7 3.3512565 26 28.8323247 26 32 7"/>
                <ellipse id="Oval" stroke="#0092D1" cx="16" cy="12.5" rx="10" ry="12.5"/>
            </g>
            <rect id="Rectangle-Copy-4" fill="#FFFFFF" x="7" y="75" width="28" height="2"/>
        </g>
        <g id="lady-7" transform="translate(151.000000, 91.000000)">
            <g id="Group-3-Copy-4" fill="#3A3B3F">
                <polygon id="Fill-1" points="9.6503778 11 9.6503778 11 9.9253778 13.2 10.4753778 15.4 11.5753778 17.05 12.9503778 18.7 14.6003778 20.075 16.5253778 21.175 18.4503778 21.725 20.6503778 22 20.6503778 22 22.8503778 21.725 25.0503778 21.175 26.7003778 20.075 28.3503778 18.7 29.7253778 17.05 30.8253778 15.4 31.3753778 13.2 31.6503778 11 31.6503778 11 31.3753778 8.8 30.8253778 6.875 29.7253778 4.95 28.3503778 3.3 26.7003778 1.925 25.0503778 0.825 22.8503778 0.275 20.6503778 0 20.6503778 0 18.4503778 0.275 16.5253778 0.825 14.6003778 1.925 12.9503778 3.3 11.5753778 4.95 10.4753778 6.875 9.9253778 8.8"/>
                <path d="M17.6503778,24 L20.6503778,24 C27.2777948,24 32.6503778,29.372583 32.6503778,36 L32.6503778,64 C32.6503778,67.8659932 29.5163711,71 25.6503778,71 L15.6503778,71 C11.7843846,71 8.6503778,67.8659932 8.6503778,64 L8.6503778,33 C8.6503778,28.0294373 12.6798151,24 17.6503778,24 Z" id="Rectangle"/>
                <path d="M24.4683278,42.1394204 C26.5260144,43.1244831 28.1850328,44.7835015 29.1700955,46.8411882 L39.9086427,69.27282 C40.8625379,71.265401 40.0205166,73.6539919 38.0279356,74.6078871 C37.4887423,74.8660115 36.8985496,75 36.3007556,75 L28.65,74.9998205 L28.6503778,101 C28.6503778,104.865993 25.5163711,108 21.6503778,108 L19.6503778,108 C15.7843846,108 12.6503778,104.865993 12.6503778,101 L12.65,74.9998205 L4,75 C1.790861,75 -2.58904009e-13,73.209139 -2.59348099e-13,71 C-2.59348099e-13,70.4022061 0.133988471,69.8120133 0.392112907,69.27282 L11.1306601,46.8411882 C13.515398,41.8597356 19.4868752,39.7546825 24.4683278,42.1394204 Z" id="Rectangle-Copy-2"/>
            </g>
            <g id="Group-4-Copy" transform="translate(11.000000, 57.000000)">
                <rect id="Rectangle" fill="#E06B06" x="0" y="4" width="26" height="18"/>
                <rect id="Rectangle" stroke="#E06B06" stroke-width="2" x="5" y="0" width="16" height="8"/>
            </g>
        </g>
        <g id="Group-3-Copy-3" transform="translate(172.077015, 134.676095) rotate(12.000000) translate(-172.077015, -134.676095) translate(160.639441, 115.969215)" fill="#3A3B3F">
            <rect id="Rectangle-Copy-5" transform="translate(11.437574, 24.941406) rotate(-39.000000) translate(-11.437574, -24.941406) " x="6.4375745" y="12.9414062" width="10" height="24" rx="2"/>
            <rect id="Rectangle" x="0.736402625" y="-4.54747351e-13" width="10" height="24" rx="2"/>
        </g>
        <g id="Group-3-Copy-6" transform="translate(210.000000, 91.000000)" fill="#3A3B3F">
            <polygon id="Fill-1" points="1 11 1 11 1.275 13.2 1.825 15.4 2.925 17.05 4.3 18.7 5.95 20.075 7.875 21.175 9.8 21.725 12 22 12 22 14.2 21.725 16.4 21.175 18.05 20.075 19.7 18.7 21.075 17.05 22.175 15.4 22.725 13.2 23 11 23 11 22.725 8.8 22.175 6.875 21.075 4.95 19.7 3.3 18.05 1.925 16.4 0.825 14.2 0.275 12 0 12 0 9.8 0.275 7.875 0.825 5.95 1.925 4.3 3.3 2.925 4.95 1.825 6.875 1.275 8.8"/>
            <path d="M9,24 L12,24 C18.627417,24 24,29.372583 24,36 L24,64 C24,67.8659932 20.8659932,71 17,71 L7,71 C3.13400675,71 4.73447626e-16,67.8659932 0,64 L0,33 C-6.08718376e-16,28.0294373 4.02943725,24 9,24 Z" id="Rectangle"/>
            <path d="M11,61 L13,61 C16.8659932,61 20,64.1340068 20,68 L20,107 C20,107.552285 19.5522847,108 19,108 L5,108 C4.44771525,108 4,107.552285 4,107 L4,68 C4,64.1340068 7.13400675,61 11,61 Z" id="Rectangle-Copy" transform="translate(12.000000, 84.500000) rotate(-180.000000) translate(-12.000000, -84.500000) "/>
        </g>
        <g id="Lady-1" transform="translate(451.000000, 91.000000)">
            <polygon id="Fill-1" fill="#3A3B3F" points="9.6503778 11 9.6503778 11 9.9253778 13.2 10.4753778 15.4 11.5753778 17.05 12.9503778 18.7 14.6003778 20.075 16.5253778 21.175 18.4503778 21.725 20.6503778 22 20.6503778 22 22.8503778 21.725 25.0503778 21.175 26.7003778 20.075 28.3503778 18.7 29.7253778 17.05 30.8253778 15.4 31.3753778 13.2 31.6503778 11 31.6503778 11 31.3753778 8.8 30.8253778 6.875 29.7253778 4.95 28.3503778 3.3 26.7003778 1.925 25.0503778 0.825 22.8503778 0.275 20.6503778 0 20.6503778 0 18.4503778 0.275 16.5253778 0.825 14.6003778 1.925 12.9503778 3.3 11.5753778 4.95 10.4753778 6.875 9.9253778 8.8"/>
            <path d="M17.6503778,24 L20.6503778,24 C27.2777948,24 32.6503778,29.372583 32.6503778,36 L32.6503778,64 C32.6503778,67.8659932 29.5163711,71 25.6503778,71 L15.6503778,71 C11.7843846,71 8.6503778,67.8659932 8.6503778,64 L8.6503778,33 C8.6503778,28.0294373 12.6798151,24 17.6503778,24 Z" id="Rectangle" fill="#3A3B3F"/>
            <path d="M24.4683278,42.1394204 C26.5260144,43.1244831 28.1850328,44.7835015 29.1700955,46.8411882 L39.9086427,69.27282 C40.8625379,71.265401 40.0205166,73.6539919 38.0279356,74.6078871 C37.4887423,74.8660115 36.8985496,75 36.3007556,75 L28.65,74.9998205 L28.6503778,101 C28.6503778,104.865993 25.5163711,108 21.6503778,108 L19.6503778,108 C15.7843846,108 12.6503778,104.865993 12.6503778,101 L12.65,74.9998205 L4,75 C1.790861,75 -2.58904009e-13,73.209139 -2.59348099e-13,71 C-2.59348099e-13,70.4022061 0.133988471,69.8120133 0.392112907,69.27282 L11.1306601,46.8411882 C13.515398,41.8597356 19.4868752,39.7546825 24.4683278,42.1394204 Z" id="Rectangle-Copy-2" fill="#3A3B3F"/>
            <g id="Group-2" transform="translate(18.000000, 40.000000) rotate(7.000000) translate(-18.000000, -40.000000) translate(2.000000, 24.000000)">
                <polygon id="Path-7" fill="#267E03" points="0 13 3.3512565 32 28.8323247 32 32 13"/>
                <ellipse id="Oval" stroke="#267E03" stroke-width="2" cx="16" cy="12.5" rx="10" ry="12.5"/>
            </g>
        </g>
        <g id="Group-3-Copy-2" transform="translate(272.520508, 132.899263) rotate(-8.000000) translate(-272.520508, -132.899263) translate(261.082933, 114.192383)" fill="#3A3B3F">
            <rect id="Rectangle-Copy-5" transform="translate(11.437574, 24.941406) rotate(-39.000000) translate(-11.437574, -24.941406) " x="6.4375745" y="12.9414062" width="10" height="24" rx="2"/>
            <rect id="Rectangle" x="0.736402625" y="-9.09494702e-13" width="10" height="24" rx="2"/>
        </g>
        <g id="Group-3-Copy-3" transform="translate(74.520508, 133.899263) rotate(-8.000000) translate(-74.520508, -133.899263) translate(63.082933, 115.192383)" fill="#3A3B3F">
            <rect id="Rectangle-Copy-5" transform="translate(11.437574, 24.941406) rotate(-39.000000) translate(-11.437574, -24.941406) " x="6.4375745" y="12.9414062" width="10" height="24" rx="2"/>
            <rect id="Rectangle" x="0.736402625" y="-4.54747351e-13" width="10" height="24" rx="2"/>
        </g>
        <g id="Group-3-Copy-5" transform="translate(472.475586, 135.971528) rotate(16.000000) translate(-472.475586, -135.971528) translate(461.038011, 117.264648)" fill="#3A3B3F">
            <rect id="Rectangle-Copy-5" transform="translate(11.437574, 24.941406) rotate(-39.000000) translate(-11.437574, -24.941406) " x="6.4375745" y="12.9414062" width="10" height="24" rx="2"/>
            <rect id="Rectangle" x="0.736402625" y="-3.63797881e-12" width="10" height="24" rx="2"/>
        </g>
    </g>
</svg>